<svg xmlns="http://www.w3.org/2000/svg" viewBox="0 0 607 83"><g fill="currentColor"><path d="M223.83 21.56v24.61c0 10.75-3.46 23-15.71 23-21.85 0-21.38-35.25 0-35.25 4.39 0 9.94 1 12.48 4.86 2.77-5 .34-16.38-14.45-17a30 30 0 0 0-4.53.2H161V.52c-7.51-.11-14.56 3.24-14.56 11.79V22h-36.11a15.65 15.65 0 0 1 5.95 12.48c2.24.08 30.16 0 30.16 0v34.55c0 19.53 31.44 13.64 25.54-1.61-2.19 3.58-11 4.62-11-.24V34.5h20.64a30.84 30.84 0 0 0-4.73 16.87c0 29 29.47 40.8 46.92 23.46v6.59h15V21.56z"/><path d="M116.28 46.17c0 10.75-3.46 23-15.71 23-21.85 0-21.38-35.25 0-35.25 4.39 0 9.93 1 12.48 4.86 2.77-5 .34-17.61-14.45-18.73-14.86-.88-24.38 10.38-33.3 19.53C41.19 65.69 36.77 66.43 16.09 66.4V15.89H29a20.4 20.4 0 0 1 11.37 3.68c.49.34 1 .69 1.42 1.06.45.37.88.75 1.29 1.15a17.5 17.5 0 0 1 1.73 2c6.52 8.76 6 24.17 1.38 32.08 3.63-2.83 15.24-14.65 18.9-19.09a44.3 44.3 0 0 0-6.77-20.59l-.45-.64-.56-.8q-.33-.45-.69-.9c-.19-.24-.37-.49-.57-.72s-.51-.61-.77-.91-.38-.43-.58-.64-.57-.6-.87-.89l-.57-.56c-.31-.3-.64-.59-1-.87l-.58-.5c-.34-.28-.69-.55-1.05-.82-.13-.1-.25-.21-.38-.3A30 30 0 0 0 46.14 5C41.63 2.69 36.31.49 29.38.49H14.24C4.07.49.72 6.39.72 14.25v67.14c11.32 0 32.47.46 40.56-2C54.47 75.8 67 55 69.39 52.1c.49 28.47 29.59 39.92 46.89 22.73v6.59h15V36h-15zM327.65 35c8.23 0 10.05-6.39 10.05-12.34h-13.25V1.45c-7.43-.11-14.4 3.2-14.4 11.66v9.59h-7.31V35h7.31v34.17c0 19.31 31.08 13.48 25.25-1.6-2.17 3.54-10.85 4.57-10.85-.23V35zm42.77-14.35c-4.92.23-9.14 3.65-11.66 8.91V22H346v59.41h14.85v-24c0-3 0-6.74.23-10.4 1.14-12.91 16.11-15.88 18.85-8.34 6.6-4.88 3.17-18.82-9.51-18.02M421 47.38c-5.71.58-12.57.92-17.26-3.08-4.57 11.31 6.86 18.4 23.31 14.28 24.15-5.94 17.95-37.93-10.24-37.93-8.45 0-17.14 2.51-23.19 9-16.69 17.49-8.69 53 21.93 53 11 0 19.54-3.77 25.71-13l-12-5.83a19.26 19.26 0 0 1-17 5.6c-8.11-1.37-13.14-9.94-12.91-18.51.23-10.29 8-17.6 16.68-18.06 12.21-.66 19.52 13.28 4.97 14.53m72.36-18.85v18c0 10.63-3.43 22.74-15.54 22.74-21.59 0-21.14-34.85 0-34.85 4.34 0 9.83 1 12.34 4.8 2.74-4.91.34-17.94-14.28-18.51-15-.57-28.91 12.57-28.91 31 0 28.68 29.14 40.33 46.39 23.19v6.51h14.85V22.25h-14.85zm107.97-1.6a21.05 21.05 0 0 0-16.68-6c-7.2.34-16.11 4.45-17.14 11.08a16.8 16.8 0 0 0-3.31-5 20.22 20.22 0 0 0-16.34-6c-5.37.34-13.6 2.85-16 8.22v-6.87H517v59.07h14.85V37.1a8.64 8.64 0 0 0 4.7 4.9c0-4.57 3.08-7.65 8.34-7.65 4 0 7.65 2.51 8.91 7.31 1.49 5.49.92 32.11.92 39.76h14.62V42.36c0-1.26 0-2.4-.11-3.55a8.44 8.44 0 0 0 3.88 3.2c-.11-4.57 4-8.22 9.26-8.11 4.68.23 7.54 3 8.34 7.77.91 5.6.91 32.11.91 39.76h14.86V42.36q0-10.11-5.15-15.43m-331.77-2.26c-6.08-8 13.59-16 22 .55 7.3-4.87 6.53-12.49 1-17.58C288.69 4 282.28 1.9 275.2 1.9c-11.27 0-21.33 8-21.33 19.56 0 15.14 20.45 24.76 27.75 34.05 6.74 8.51-1 15.14-9.95 12.71-5.09-1.44-11.17-7.08-13.82-12.6l-11.61 8.51c5.64 11.05 17.14 18.79 28.85 18.79 19.79 0 27.86-17.47 21.89-30.84-4.76-10.28-21.9-20.34-27.42-27.41"/></g></svg>